<?xml version="1.0" encoding="utf-8"?>
<!-- Generator: Adobe Illustrator 15.0.0, SVG Export Plug-In . SVG Version: 6.00 Build 0)  -->
<!DOCTYPE svg PUBLIC "-//W3C//DTD SVG 1.1//EN" "http://www.w3.org/Graphics/SVG/1.1/DTD/svg11.dtd">
<svg version="1.1" id="Layer_1" xmlns="http://www.w3.org/2000/svg" xmlns:xlink="http://www.w3.org/1999/xlink" x="0px" y="0px"
	 width="128px" height="128px" viewBox="0 0 128 128" enable-background="new 0 0 128 128" xml:space="preserve">
<g>
	<rect fill="#0B3F56" width="128" height="128"/>
	<path fill="#0E445C" d="M117.48,57.36c0,20.05-6.94,38.48-18.551,53.01c-0.33,0.43-0.68,0.85-1.029,1.27
		c-0.49,0.601-0.99,1.181-1.5,1.761c-0.261,0.3-0.521,0.59-0.79,0.88c-0.16,0.189-0.33,0.38-0.511,0.56
		c-0.279,0.311-0.569,0.62-0.859,0.93c-4.351,4.601-9.2,8.711-14.46,12.23H0V0h95.22c12.931,14.14,21.141,32.67,22.15,53.08
		c0.05,0.85,0.08,1.71,0.09,2.57C117.47,56.22,117.48,56.79,117.48,57.36z"/>
	<path fill="#144961" d="M93.48,57.36c0,2.8-0.19,5.56-0.561,8.27c-0.12,0.94-0.27,1.88-0.439,2.811
		C89.22,86.23,78.23,101.33,63.13,110.13c-0.8,0.47-1.61,0.91-2.43,1.33c-0.54,0.3-1.08,0.57-1.63,0.83
		c-0.42,0.21-0.85,0.41-1.28,0.61c-0.33,0.149-0.65,0.29-0.98,0.43c-0.3,0.14-0.61,0.27-0.92,0.4c-0.71,0.289-1.44,0.579-2.17,0.85
		c-0.34,0.13-0.69,0.25-1.04,0.37c-6.33,2.229-13.14,3.439-20.23,3.439c-7.16,0-14.03-1.229-20.42-3.51
		c-0.36-0.12-0.71-0.25-1.06-0.38c-3.86-1.45-7.53-3.28-10.97-5.44V5.66C3.61,3.38,7.47,1.48,11.53,0h41.84
		C76.78,8.54,93.48,31,93.48,57.36z"/>
	<path fill="#195069" d="M71.98,57.36c0,21.831-17.701,39.53-39.53,39.53C19.01,96.89,7.14,90.19,0,79.94V34.77
		c7.14-10.25,19.01-16.95,32.45-16.95C54.28,17.82,71.98,35.52,71.98,57.36z"/>
	<g>
		<g>
			<circle fill="#2AAAE2" cx="32.449" cy="57.639" r="19.761"/>
			<g>
				<g>
					<path fill="#FFFFFF" d="M32.44,42.29c-4.01,0-6.81,2.48-6.81,6.04v8.13l0.32,0.17c0.03,0.02,0.3,0.16,0.77,0.34
						c0.51,0.2,1.26,0.45,2.2,0.66c0.37,0.09,0.78,0.16,1.22,0.22c0.7,0.11,1.47,0.17,2.3,0.17c0.8,0,1.56-0.06,2.24-0.16
						c0.43-0.05,0.84-0.13,1.21-0.21c0.99-0.22,1.77-0.49,2.29-0.69c0.45-0.18,0.7-0.31,0.74-0.33l0.33-0.17v-8.13
						C39.25,44.77,36.45,42.29,32.44,42.29z M38.03,55.7c-0.41,0.17-1.19,0.47-2.23,0.71c-0.15,0.04-0.3,0.07-0.47,0.11h-0.01
						c-0.13,0.02-0.26,0.05-0.4,0.07c-0.08,0.01-0.17,0.03-0.26,0.04c-0.67,0.1-1.42,0.17-2.22,0.17c-0.82,0-1.58-0.07-2.27-0.18
						c-0.1-0.01-0.21-0.03-0.3-0.05c-0.1-0.02-0.2-0.04-0.29-0.06h-0.03c-0.2-0.04-0.39-0.08-0.57-0.12c-1-0.24-1.74-0.52-2.13-0.69
						v-7.37c0-3.33,2.81-4.82,5.59-4.82c2.78,0,5.59,1.49,5.59,4.82V55.7z"/>
				</g>
				<g>
					<path fill="#FFFFFF" d="M35.82,56.96v-0.03l-0.02-0.52l-0.03-0.66v-0.01l-0.12-2.38v-0.01l-0.09-1.95l-0.07-1.52
						c0-0.36-0.07-0.71-0.19-1.01c-0.42-1.05-1.49-1.72-2.89-1.72c-0.49,0-0.95,0.08-1.34,0.24c-0.9,0.34-1.51,1.03-1.68,1.95v0.01
						c-0.03,0.17-0.05,0.35-0.05,0.53l-0.12,2.18l-0.13,2.38l-0.11,1.95l-0.05,0.89h0.02l0.54,0.08c0.03,0.01,0.26,0.13,0.66,0.26
						c0.52,0.18,1.3,0.37,2.26,0.37s1.74-0.19,2.26-0.37c0.41-0.13,0.65-0.25,0.67-0.26l0.5-0.07L35.82,56.96z M30.17,56.94v-0.32
						l-0.03-2.15l-0.02-2.4l-0.02-1.93c0-0.16,0.02-0.31,0.05-0.46c0.15-0.77,0.69-1.31,1.38-1.55c0.27-0.1,0.57-0.15,0.88-0.15
						c0.91,0,1.72,0.34,2.1,1.1c0.15,0.29,0.23,0.64,0.23,1.06l-0.01,1.21L34.7,53.4l-0.03,2.33l-0.01,0.9v0.31
						c-0.35,0.15-1.02,0.49-2.25,0.49S30.52,57.09,30.17,56.94z"/>
				</g>
				<g>
					<circle fill="#FFFFFF" cx="30.264" cy="48.394" r="1.294"/>
				</g>
				<g>
					<circle fill="#FFFFFF" cx="35.235" cy="50.156" r="1.294"/>
				</g>
				<g>
					<circle fill="#FFFFFF" cx="35.235" cy="54.57" r="1.294"/>
				</g>
				<g>
					<circle fill="#FFFFFF" cx="29.641" cy="53.276" r="1.294"/>
				</g>
				<g>
					<path fill="#FFFFFF" d="M37.316,72.993c-0.865,0-1.71-0.392-2.353-1.099c-1.755-1.932-1.589-4.399-0.554-9.202
						c0.541-2.506,0.22-5.481,0.217-5.511c-0.037-0.335,0.205-0.638,0.541-0.675c0.335-0.039,0.639,0.204,0.676,0.54
						c0.014,0.129,0.346,3.199-0.237,5.904c-1.058,4.909-0.999,6.73,0.264,8.121c0.616,0.678,1.273,0.724,1.61,0.689
						c0.452-0.044,0.852-0.271,1.043-0.593c0.173-0.289,0.55-0.384,0.839-0.211c0.29,0.174,0.384,0.549,0.211,0.839
						c-0.393,0.657-1.131,1.1-1.973,1.183C37.506,72.989,37.411,72.993,37.316,72.993z"/>
				</g>
				<g>
					<path fill="#FFFFFF" d="M40.651,69.403c-0.678,0-1.356-0.214-1.903-0.634c-0.657-0.503-1.671-1.736-1.068-4.342
						c1.17-5.054,0.376-8.148,0.368-8.179c-0.087-0.326,0.107-0.661,0.433-0.749c0.326-0.087,0.661,0.104,0.75,0.429
						c0.037,0.137,0.888,3.393-0.357,8.773c-0.333,1.436-0.113,2.535,0.619,3.096c0.57,0.436,1.41,0.504,2.043,0.165
						c0.306-0.164,0.663-0.48,0.625-1.062c-0.022-0.337,0.233-0.629,0.57-0.651c0.333-0.021,0.629,0.234,0.651,0.571
						c0.061,0.933-0.413,1.764-1.268,2.221C41.661,69.284,41.155,69.403,40.651,69.403z"/>
				</g>
				<g>
					<path fill="#FFFFFF" d="M27.5,72.993c-0.095,0-0.189-0.004-0.284-0.015c-0.843-0.083-1.58-0.525-1.972-1.183
						c-0.174-0.29-0.079-0.665,0.211-0.839c0.29-0.173,0.666-0.078,0.839,0.211c0.192,0.321,0.592,0.549,1.043,0.593
						c0.337,0.034,0.995-0.012,1.611-0.689c1.262-1.391,1.321-3.212,0.263-8.121c-0.583-2.706-0.251-5.775-0.237-5.904
						c0.038-0.336,0.34-0.58,0.676-0.54c0.335,0.037,0.578,0.34,0.541,0.675c-0.003,0.03-0.323,3.005,0.217,5.511
						c1.035,4.802,1.201,7.27-0.554,9.202C29.209,72.602,28.365,72.993,27.5,72.993z"/>
				</g>
				<g>
					<path fill="#FFFFFF" d="M24.247,69.403c-0.504,0-1.01-0.119-1.462-0.36c-0.855-0.457-1.329-1.288-1.268-2.221
						c0.022-0.337,0.317-0.596,0.651-0.571c0.337,0.022,0.593,0.314,0.57,0.651c-0.038,0.581,0.319,0.897,0.625,1.062
						c0.633,0.339,1.473,0.271,2.043-0.165c0.731-0.561,0.952-1.66,0.62-3.096c-1.246-5.38-0.395-8.636-0.358-8.773
						c0.089-0.326,0.426-0.518,0.751-0.43c0.325,0.089,0.519,0.423,0.431,0.75l0,0c-0.008,0.031-0.802,3.125,0.369,8.179
						c0.604,2.605-0.411,3.839-1.068,4.342C25.603,69.189,24.925,69.403,24.247,69.403z"/>
				</g>
			</g>
		</g>
		<g>
			<path fill="#2AAAE2" d="M70.8,48.947v13.332c0,4.645-3.25,6.527-6.407,6.527c-3.06,0-6.174-1.792-6.368-6.098
				c0-0.001-0.001-0.003,0-0.004c-0.005-0.089-0.006-0.181-0.008-0.271c0.031-0.517,0.319-0.964,0.736-1.216
				c0.229-0.139,0.5-0.218,0.787-0.218s0.558,0.079,0.787,0.218c0.417,0.252,0.706,0.699,0.736,1.216
				c0.002,0.008,0.002,0.016,0.002,0.026c0.153,2.643,1.769,3.496,3.357,3.496c1.7,0,3.341-1.003,3.341-3.796V50.284
				c0-0.457-0.242-0.668-0.668-0.668h-3.042v-2.613h4.803C70.222,47.002,70.8,47.58,70.8,48.947z"/>
			<path fill="#2AAAE2" d="M93.5,65.92c-0.28,0-0.47-0.09-0.58-0.29c-0.05-0.1-0.08-0.229-0.08-0.38v-16.3
				c0-1.37-0.57-1.95-1.939-1.95h-2.91v2.52h1.24c0.43,0,0.67,0.22,0.67,0.67V66.5c0,1.36,0.569,1.94,1.939,1.94h1.66
				c0.69,0,1.26-0.561,1.26-1.261C94.76,66.49,94.19,65.92,93.5,65.92z"/>
			<path fill="#2AAAE2" d="M100.89,65.92h-0.01c-0.42,0-0.66-0.22-0.66-0.67v-16.3c0-1.37-0.569-1.95-1.939-1.95h-2.92v2.52h1.25
				c0.42,0,0.67,0.22,0.67,0.67V66.5c0,1.36,0.569,1.94,1.939,1.94h1.66c0.69,0,1.26-0.561,1.26-1.261
				C102.14,66.49,101.58,65.93,100.89,65.92z"/>
			<path fill="#2AAAE2" d="M118.289,53.077v2.52h-0.395c-0.484,0-0.759,0.122-0.971,0.608l-6.073,15
				c-0.941,2.37-2.794,3.614-4.949,3.614c-1.185,0-2.115-0.411-2.734-0.807c-0.447-0.284-0.653-0.818-0.533-1.319
				c0.024-0.102,0.063-0.201,0.115-0.298c0.06-0.112,0.137-0.213,0.225-0.297c0.374-0.361,0.954-0.457,1.437-0.195
				c0.365,0.199,0.823,0.365,1.339,0.365c1.185,0,2.127-0.85,2.702-2.217l0.698-1.67l-5.252-12.177
				c-0.214-0.487-0.486-0.608-0.973-0.608h-0.363v-2.52h1.73c1.244,0,1.7,0.335,2.186,1.55l3.491,8.653
				c0.304,0.79,0.549,1.852,0.549,1.852h0.06c0,0,0.213-1.062,0.516-1.852l3.189-8.653c0.455-1.215,1.002-1.55,2.247-1.55H118.289z"
				/>
			<path fill="#2AAAE2" d="M87.41,59.91c0-3.98-2.311-7.2-6.62-7.2c-4.37,0-7.71,3.16-7.71,8.05c0,4.55,3.31,8.05,8.17,8.05
				c2.18,0,3.87-0.81,4.88-1.46c0,0,0,0,0.01,0c0.021-0.02,0.04-0.029,0.061-0.04c0.05-0.029,0.09-0.06,0.13-0.09c0,0,0,0,0.01-0.01
				c0.42-0.34,0.561-0.93,0.351-1.42c-0.021-0.07-0.051-0.13-0.091-0.19c-0.029-0.05-0.06-0.1-0.1-0.14
				c-0.39-0.47-1.07-0.59-1.6-0.25c-0.801,0.49-2.03,1.04-3.5,1.04c-2.74,0-5.11-1.85-5.29-5.13h11.21
				C87.32,61.12,87.41,60.3,87.41,59.91z M76.23,58.97c0.46-2.55,2.279-3.92,4.529-3.92c1.91,0,3.521,1.37,3.61,3.92H76.23z"/>
			<path fill="#2AAAE2" d="M86.325,67.221c-0.037,0.033-0.079,0.062-0.121,0.087c-0.022,0.014-0.043,0.027-0.065,0.038
				C86.204,67.304,86.268,67.261,86.325,67.221z"/>
		</g>
		<path fill="#2AAAE2" d="M56.272,62.02c-0.007-0.049-0.01-0.1-0.01-0.15c0-0.026,0.001-0.051,0.003-0.077
			C56.267,61.869,56.268,61.945,56.272,62.02z"/>
	</g>
	<g>
		<g>
			<path fill="#F2F2F2" d="M14.8,96.66h-1.12l-2.71,7.55h1.09l0.75-2.17h2.84l0.76,2.17h1.1L14.8,96.66z M13.09,101.16l0.84-2.4
				c0.13-0.38,0.3-1.06,0.3-1.06h0.02c0,0,0.16,0.68,0.29,1.06l0.83,2.4H13.09z"/>
			<path fill="#F2F2F2" d="M22.04,98.61c0-0.591,0.57-1.101,1.37-1.101c0.96,0,1.66,0.66,1.66,0.66l0.48-0.88
				c0,0-0.74-0.76-2.14-0.76c-1.42,0-2.44,0.93-2.44,2.109c0,2.32,3.66,1.96,3.66,3.601c0,0.72-0.6,1.109-1.31,1.109
				c-1.12,0-1.92-0.81-1.92-0.81l-0.6,0.8c0,0,0.9,1,2.5,1c1.5,0,2.4-0.96,2.4-2.13C25.7,99.76,22.04,100.18,22.04,98.61z"/>
			<path fill="#F2F2F2" d="M26.99,96.66v1.06h1.05v-1.06H26.99z M27,98.8v5.41h1.04V98.8H27z"/>
			<path fill="#F2F2F2" d="M36.11,98.67c-0.88,0-1.63,0.58-1.93,1.23h-0.02c-0.18-0.82-0.72-1.23-1.63-1.23
				c-0.84,0-1.6,0.61-1.86,1.24h-0.02c0,0,0.02-0.18,0.02-0.4V98.8h-1v5.41h1.03v-2.47c0-0.25,0.02-0.49,0.07-0.71
				c0.2-0.771,0.76-1.42,1.55-1.42c0.83,0,0.94,0.649,0.94,1.359v3.24h1.04v-2.47c0-0.28,0.02-0.53,0.07-0.75
				c0.2-0.74,0.76-1.38,1.52-1.38c0.81,0,0.96,0.6,0.96,1.359v3.24h1.04v-3.47C37.89,99.36,37.33,98.67,36.11,98.67z"/>
			<path fill="#F2F2F2" d="M42.21,98.67c-1.35,0-1.81,0.98-1.81,0.98h-0.02c0,0,0.02-0.181,0.02-0.391V98.8h-0.96v7.55h1.04v-2.43
				c0-0.28-0.02-0.47-0.02-0.47h0.02c0,0,0.47,0.89,1.66,0.89c1.41,0,2.45-1.12,2.45-2.84C44.59,99.82,43.67,98.67,42.21,98.67z
				 M41.98,103.45c-1,0-1.53-0.96-1.53-1.931c0-1.38,0.75-1.939,1.56-1.939c0.9,0,1.53,0.76,1.53,1.93
				C43.54,102.74,42.83,103.45,41.98,103.45z"/>
			<path fill="#F2F2F2" d="M47.41,103.32c-0.32,0-0.57-0.12-0.57-0.771v-5.89H45.8v6.07c0,1.359,0.87,1.52,1.45,1.52
				c0.19,0,0.35-0.02,0.35-0.02v-0.921C47.6,103.31,47.51,103.32,47.41,103.32z"/>
			<path fill="#F2F2F2" d="M53.37,101.2c0-1.4-0.81-2.53-2.34-2.53c-1.54,0-2.71,1.11-2.71,2.83c0,1.61,1.17,2.84,2.87,2.84
				c1.29,0,2.1-0.77,2.1-0.77l-0.43-0.761c0,0-0.68,0.631-1.61,0.631c-0.96,0-1.8-0.601-1.86-1.79h3.95
				C53.34,101.65,53.37,101.34,53.37,101.2z M49.43,100.87c0.15-0.89,0.79-1.38,1.58-1.38c0.69,0,1.27,0.45,1.3,1.38H49.43z"/>
			<path fill="#F2F2F2" d="M14.83,112.74c-0.14-0.25-0.23-0.34-0.23-0.34v-0.021c0.83-0.27,1.36-1.09,1.36-2.05
				c0-0.99-0.5-1.75-1.27-2.04c-0.29-0.11-0.62-0.17-1.41-0.17h-2.31v7.55h1.06v-3.01h1.61l1.6,3.01h1.19L14.83,112.74z
				 M13.54,111.74h-1.51v-2.7h1.22c0.58,0,0.83,0.06,1.03,0.17c0.39,0.21,0.6,0.61,0.6,1.17C14.88,111.22,14.37,111.74,13.54,111.74
				z"/>
			<path fill="#F2F2F2" d="M22.28,112.66c0-1.4-0.81-2.53-2.34-2.53c-1.54,0-2.7,1.11-2.7,2.83c0,1.61,1.16,2.84,2.86,2.84
				c1.3,0,2.1-0.77,2.1-0.77l-0.43-0.761c0,0-0.67,0.631-1.6,0.631c-0.97,0-1.81-0.601-1.86-1.79h3.94
				C22.25,113.11,22.28,112.8,22.28,112.66z M18.34,112.33c0.15-0.89,0.79-1.38,1.58-1.38c0.7,0,1.27,0.45,1.31,1.38H18.34z"/>
			<path fill="#F2F2F2" d="M24.34,111.69c0-0.471,0.44-0.66,0.89-0.66c0.85,0,1.33,0.479,1.33,0.479l0.42-0.779
				c0,0-0.55-0.601-1.74-0.601c-1.08,0-1.96,0.561-1.96,1.54c0,1.76,2.78,1.561,2.78,2.561c0,0.43-0.45,0.67-0.9,0.67
				c-0.94,0-1.55-0.631-1.55-0.631l-0.5,0.74c0,0,0.73,0.79,2.05,0.79c1.19,0,1.96-0.68,1.96-1.569
				C27.12,112.45,24.34,112.66,24.34,111.69z"/>
			<path fill="#F2F2F2" d="M31.11,110.13c-1.36,0-1.82,0.98-1.82,0.98h-0.02c0,0,0.02-0.181,0.02-0.391v-0.46h-0.95v7.55h1.04v-2.43
				c0-0.28-0.02-0.47-0.02-0.47h0.02c0,0,0.47,0.89,1.66,0.89c1.41,0,2.45-1.109,2.45-2.84C33.49,111.28,32.56,110.13,31.11,110.13z
				 M30.88,114.91c-1,0-1.53-0.96-1.53-1.93c0-1.381,0.74-1.94,1.56-1.94c0.9,0,1.53,0.76,1.53,1.93
				C32.44,114.21,31.73,114.91,30.88,114.91z"/>
			<path fill="#F2F2F2" d="M37.28,110.13c-1.61,0-2.92,1.19-2.92,2.82c0,1.649,1.31,2.85,2.92,2.85c1.62,0,2.92-1.2,2.92-2.85
				C40.2,111.32,38.9,110.13,37.28,110.13z M37.28,114.9c-1.01,0-1.86-0.811-1.86-1.95c0-1.12,0.85-1.92,1.86-1.92
				c1.03,0,1.86,0.8,1.86,1.92C39.14,114.09,38.31,114.9,37.28,114.9z"/>
			<path fill="#F2F2F2" d="M44.47,110.13c-1.18,0-1.82,0.771-2.03,1.24h-0.02c0,0,0.02-0.18,0.02-0.4v-0.71h-1.01v5.41h1.04v-2.54
				c0-0.26,0.02-0.51,0.09-0.72c0.22-0.78,0.89-1.33,1.71-1.33c0.87,0,1.03,0.6,1.03,1.36v3.229h1.03v-3.47
				C46.33,110.82,45.74,110.13,44.47,110.13z"/>
			<path fill="#F2F2F2" d="M48.68,111.69c0-0.471,0.44-0.66,0.88-0.66c0.86,0,1.34,0.479,1.34,0.479l0.42-0.779
				c0,0-0.56-0.601-1.75-0.601c-1.07,0-1.95,0.561-1.95,1.54c0,1.76,2.78,1.561,2.78,2.561c0,0.43-0.45,0.67-0.9,0.67
				c-0.94,0-1.55-0.631-1.55-0.631l-0.5,0.74c0,0,0.72,0.79,2.05,0.79c1.19,0,1.96-0.68,1.96-1.569
				C51.46,112.45,48.68,112.66,48.68,111.69z"/>
			<path fill="#F2F2F2" d="M52.67,108.12v1.06h1.05v-1.06H52.67z M52.68,110.26v5.41h1.04v-5.41H52.68z"/>
			<path fill="#F2F2F2" d="M58.73,110.26l-0.94,2.641l-0.37,1.02c-0.11,0.29-0.19,0.73-0.2,0.73H57.2c-0.01,0-0.07-0.44-0.18-0.73
				l-0.21-0.59l-1.1-3.07H54.6l1.29,3.471l0.73,1.939h1.2l1.25-3.38l0.75-2.03H58.73z"/>
			<path fill="#F2F2F2" d="M65.38,112.66c0-1.37-0.78-2.48-2.25-2.53h-0.09c-1.03,0-1.88,0.49-2.34,1.33
				c-0.23,0.42-0.36,0.93-0.36,1.5c0,1.61,1.16,2.84,2.86,2.84c1.3,0,2.1-0.77,2.1-0.77l-0.43-0.761c0,0-0.67,0.631-1.6,0.631
				c-0.96,0-1.81-0.601-1.86-1.79h3.939C65.35,113.11,65.38,112.8,65.38,112.66z M61.44,112.33c0.15-0.89,0.79-1.38,1.58-1.38
				c0.7,0,1.27,0.45,1.31,1.38H61.44z"/>
			<path fill="#F2F2F2" d="M70.28,110.08c0-0.6,0.56-1.11,1.359-1.11c0.971,0,1.66,0.66,1.66,0.66l0.48-0.88
				c0,0-0.74-0.76-2.141-0.76c-1.42,0-2.43,0.93-2.43,2.109c0,2.32,3.65,1.971,3.65,3.601c0,0.72-0.591,1.109-1.301,1.109
				c-1.119,0-1.93-0.81-1.93-0.81l-0.59,0.8c0,0,0.89,1,2.5,1c1.49,0,2.39-0.96,2.39-2.13C73.93,111.22,70.28,111.64,70.28,110.08z"
				/>
			<path fill="#F2F2F2" d="M76.79,114.78c-0.32,0-0.58-0.12-0.58-0.771v-5.89h-1.04v6.07c0,1.359,0.87,1.52,1.46,1.52
				c0.18,0,0.34-0.02,0.34-0.02v-0.921C76.97,114.77,76.88,114.78,76.79,114.78z"/>
			<path fill="#F2F2F2" d="M78.06,108.12v1.06h1.051v-1.06H78.06z M78.07,110.26v5.41h1.04v-5.41H78.07z"/>
			<path fill="#F2F2F2" d="M84.5,108.12v2.5c0,0.2,0.02,0.37,0.02,0.37H84.5c0,0-0.41-0.86-1.67-0.86c-1.43,0-2.45,1.11-2.45,2.83
				c0,1.68,0.92,2.84,2.39,2.84c1.341,0,1.771-1.01,1.771-1.01h0.03c0,0-0.011,0.15-0.011,0.37v0.51h0.98v-7.55H84.5z M82.97,114.9
				c-0.899,0-1.529-0.761-1.529-1.94c0-1.229,0.71-1.93,1.56-1.93c1.03,0,1.54,0.96,1.54,1.92C84.54,114.33,83.78,114.9,82.97,114.9
				z"/>
			<path fill="#F2F2F2" d="M91.84,112.66c0-1.4-0.81-2.53-2.34-2.53c-1.54,0-2.71,1.11-2.71,2.83c0,1.61,1.17,2.84,2.87,2.84
				c1.29,0,2.09-0.77,2.09-0.77l-0.42-0.761c0,0-0.68,0.631-1.61,0.631c-0.96,0-1.81-0.601-1.859-1.79h3.949
				C91.81,113.11,91.84,112.8,91.84,112.66z M87.89,112.33c0.15-0.89,0.801-1.38,1.591-1.38c0.689,0,1.27,0.45,1.3,1.38H87.89z"/>
			<path fill="#F2F2F2" d="M96.4,113.4c-0.69-0.91-2.5-0.931-2.5-1.71c0-0.471,0.43-0.66,0.88-0.66c0.859,0,1.34,0.479,1.34,0.479
				l0.42-0.779c0,0-0.56-0.601-1.75-0.601c-1.08,0-1.95,0.561-1.95,1.54c0,1.76,2.78,1.561,2.78,2.561c0,0.02,0,0.039-0.01,0.05
				c-0.021,0.279-0.23,0.47-0.511,0.56c-0.119,0.04-0.25,0.061-0.38,0.061c-0.939,0-1.55-0.631-1.55-0.631l-0.5,0.74
				c0,0,0.55,0.601,1.57,0.76c0.149,0.021,0.31,0.03,0.479,0.03c1.19,0,1.96-0.68,1.96-1.569C96.68,113.89,96.57,113.62,96.4,113.4z
				"/>
			<path fill="#F2F2F2" d="M100.93,110.13c-1.08,0-1.76,0.68-2,1.21h-0.02c0,0,0.02-0.189,0.02-0.45v-2.77H97.9v7.55h1.029v-2.54
				c0-0.25,0.03-0.5,0.09-0.71c0.221-0.78,0.9-1.34,1.711-1.34c0.869,0,1.029,0.6,1.029,1.36v3.229h1.03v-3.47
				C102.79,110.82,102.21,110.13,100.93,110.13z"/>
			<path fill="#F2F2F2" d="M106.87,110.13c-1.61,0-2.92,1.19-2.92,2.82c0,1.649,1.31,2.85,2.92,2.85c1.62,0,2.92-1.2,2.92-2.85
				C109.79,111.32,108.49,110.13,106.87,110.13z M106.87,114.9c-1.01,0-1.86-0.811-1.86-1.95c0-1.12,0.851-1.92,1.86-1.92
				c1.03,0,1.86,0.8,1.86,1.92C108.73,114.09,107.9,114.9,106.87,114.9z"/>
			<path fill="#F2F2F2" d="M117.64,110.26l-1.13,3.79c-0.09,0.28-0.13,0.58-0.13,0.58h-0.02c0,0-0.07-0.3-0.15-0.58l-1.17-3.78
				h-0.95l-1.17,3.78c-0.09,0.28-0.14,0.58-0.14,0.58h-0.021c-0.02,0-0.06-0.3-0.14-0.58l-1.13-3.79h-1.101l1.74,5.41h1.16
				l1.11-3.479c0.09-0.271,0.149-0.591,0.149-0.591h0.021c0,0,0.069,0.32,0.149,0.591l1.13,3.479h1.141l1.74-5.41H117.64z"/>
		</g>
	</g>
	<rect fill="none" width="128" height="128"/>
</g>
</svg>
